<mxfile host="app.diagrams.net" agent="Mozilla/5.0 (Windows NT 10.0; Win64; x64) AppleWebKit/537.36 (KHTML, like Gecko) Chrome/127.0.0.0 Safari/537.36 OPR/113.0.0.0" version="24.7.17">
  <diagram name="Page-1" id="gdyXt6v3vsUuZrMh-81j">
    <mxGraphModel dx="3450" dy="1848" grid="1" gridSize="10" guides="1" tooltips="1" connect="1" arrows="1" fold="1" page="1" pageScale="1" pageWidth="3937" pageHeight="7874" math="0" shadow="0">
      <root>
        <mxCell id="0" />
        <mxCell id="1" parent="0" />
        <mxCell id="rtSp7OafgJxW7CSCwJ7g-3" value="Student" style="shape=umlActor;verticalLabelPosition=bottom;verticalAlign=top;html=1;outlineConnect=0;" parent="1" vertex="1">
          <mxGeometry x="760" y="3820" width="30" height="60" as="geometry" />
        </mxCell>
        <mxCell id="rtSp7OafgJxW7CSCwJ7g-4" value="" style="rounded=0;whiteSpace=wrap;html=1;fillColor=none;" parent="1" vertex="1">
          <mxGeometry x="1010" y="3370" width="650" height="1110" as="geometry" />
        </mxCell>
        <mxCell id="rtSp7OafgJxW7CSCwJ7g-5" value="Registration" style="ellipse;whiteSpace=wrap;html=1;fillColor=none;" parent="1" vertex="1">
          <mxGeometry x="1290" y="3500" width="120" height="80" as="geometry" />
        </mxCell>
        <mxCell id="rtSp7OafgJxW7CSCwJ7g-6" value="&lt;font style=&quot;font-size: 15px;&quot;&gt;Log into the system according to the user type&lt;/font&gt;" style="ellipse;whiteSpace=wrap;html=1;fillColor=none;" parent="1" vertex="1">
          <mxGeometry x="1285" y="3610" width="130" height="90" as="geometry" />
        </mxCell>
        <mxCell id="rtSp7OafgJxW7CSCwJ7g-7" value="Check Room&amp;nbsp; Availability&amp;nbsp;" style="ellipse;whiteSpace=wrap;html=1;fillColor=none;" parent="1" vertex="1">
          <mxGeometry x="1180" y="3750" width="120" height="80" as="geometry" />
        </mxCell>
        <mxCell id="rtSp7OafgJxW7CSCwJ7g-8" value="Book a room" style="ellipse;whiteSpace=wrap;html=1;fillColor=none;" parent="1" vertex="1">
          <mxGeometry x="1130" y="3870" width="120" height="80" as="geometry" />
        </mxCell>
        <mxCell id="rtSp7OafgJxW7CSCwJ7g-9" value="Submit Feedback" style="ellipse;whiteSpace=wrap;html=1;fillColor=none;" parent="1" vertex="1">
          <mxGeometry x="1100" y="4160" width="120" height="80" as="geometry" />
        </mxCell>
        <mxCell id="rtSp7OafgJxW7CSCwJ7g-10" value="Make&lt;div&gt;Payments&lt;/div&gt;" style="ellipse;whiteSpace=wrap;html=1;fillColor=none;" parent="1" vertex="1">
          <mxGeometry x="1140" y="3990" width="120" height="80" as="geometry" />
        </mxCell>
        <mxCell id="rtSp7OafgJxW7CSCwJ7g-13" value="Admin" style="shape=umlActor;verticalLabelPosition=bottom;verticalAlign=top;html=1;outlineConnect=0;" parent="1" vertex="1">
          <mxGeometry x="1830" y="3590" width="30" height="60" as="geometry" />
        </mxCell>
        <mxCell id="rtSp7OafgJxW7CSCwJ7g-15" value="Warden" style="shape=umlActor;verticalLabelPosition=bottom;verticalAlign=top;html=1;outlineConnect=0;" parent="1" vertex="1">
          <mxGeometry x="1890" y="4260" width="30" height="60" as="geometry" />
        </mxCell>
        <mxCell id="rtSp7OafgJxW7CSCwJ7g-17" value="Monitor Room Availabilty&amp;nbsp;" style="ellipse;whiteSpace=wrap;html=1;fillColor=none;" parent="1" vertex="1">
          <mxGeometry x="1340" y="3730" width="120" height="80" as="geometry" />
        </mxCell>
        <mxCell id="rtSp7OafgJxW7CSCwJ7g-18" value="View students&lt;div&gt;(Currently living)&lt;/div&gt;" style="ellipse;whiteSpace=wrap;html=1;fillColor=none;" parent="1" vertex="1">
          <mxGeometry x="1330" y="3840" width="120" height="80" as="geometry" />
        </mxCell>
        <mxCell id="rtSp7OafgJxW7CSCwJ7g-20" value="Log Room Checks" style="ellipse;whiteSpace=wrap;html=1;fillColor=none;" parent="1" vertex="1">
          <mxGeometry x="1500" y="4390" width="120" height="80" as="geometry" />
        </mxCell>
        <mxCell id="rtSp7OafgJxW7CSCwJ7g-21" value="Reply for feedback" style="ellipse;whiteSpace=wrap;html=1;fillColor=none;" parent="1" vertex="1">
          <mxGeometry x="1285" y="4220" width="120" height="80" as="geometry" />
        </mxCell>
        <mxCell id="rtSp7OafgJxW7CSCwJ7g-22" value="Manage&amp;nbsp;&lt;div&gt;Notifications&lt;/div&gt;" style="ellipse;whiteSpace=wrap;html=1;fillColor=none;" parent="1" vertex="1">
          <mxGeometry x="1285" y="4070" width="120" height="80" as="geometry" />
        </mxCell>
        <mxCell id="rtSp7OafgJxW7CSCwJ7g-24" value="Oversee Payments" style="ellipse;whiteSpace=wrap;html=1;fillColor=none;" parent="1" vertex="1">
          <mxGeometry x="1295" y="3960" width="120" height="80" as="geometry" />
        </mxCell>
        <mxCell id="rtSp7OafgJxW7CSCwJ7g-26" value="Select Role" style="ellipse;whiteSpace=wrap;html=1;fillColor=none;" parent="1" vertex="1">
          <mxGeometry x="1290" y="3400" width="120" height="80" as="geometry" />
        </mxCell>
        <mxCell id="rtSp7OafgJxW7CSCwJ7g-27" value="" style="endArrow=none;html=1;rounded=0;entryX=0;entryY=0.5;entryDx=0;entryDy=0;exitX=1;exitY=0.3333333333333333;exitDx=0;exitDy=0;exitPerimeter=0;" parent="1" target="rtSp7OafgJxW7CSCwJ7g-5" edge="1" source="rtSp7OafgJxW7CSCwJ7g-3">
          <mxGeometry width="50" height="50" relative="1" as="geometry">
            <mxPoint x="880" y="4030" as="sourcePoint" />
            <mxPoint x="930" y="3980" as="targetPoint" />
          </mxGeometry>
        </mxCell>
        <mxCell id="rtSp7OafgJxW7CSCwJ7g-28" value="" style="endArrow=none;html=1;rounded=0;exitX=1;exitY=0.3333333333333333;exitDx=0;exitDy=0;exitPerimeter=0;" parent="1" target="rtSp7OafgJxW7CSCwJ7g-7" edge="1" source="rtSp7OafgJxW7CSCwJ7g-3">
          <mxGeometry width="50" height="50" relative="1" as="geometry">
            <mxPoint x="880" y="4030" as="sourcePoint" />
            <mxPoint x="940" y="3990" as="targetPoint" />
          </mxGeometry>
        </mxCell>
        <mxCell id="rtSp7OafgJxW7CSCwJ7g-29" value="" style="endArrow=none;html=1;rounded=0;exitX=1;exitY=0.3333333333333333;exitDx=0;exitDy=0;exitPerimeter=0;" parent="1" source="rtSp7OafgJxW7CSCwJ7g-3" target="rtSp7OafgJxW7CSCwJ7g-8" edge="1">
          <mxGeometry width="50" height="50" relative="1" as="geometry">
            <mxPoint x="890" y="4040" as="sourcePoint" />
            <mxPoint x="950" y="4000" as="targetPoint" />
          </mxGeometry>
        </mxCell>
        <mxCell id="rtSp7OafgJxW7CSCwJ7g-30" value="" style="endArrow=none;html=1;rounded=0;exitX=1;exitY=0.3333333333333333;exitDx=0;exitDy=0;exitPerimeter=0;" parent="1" target="rtSp7OafgJxW7CSCwJ7g-9" edge="1" source="rtSp7OafgJxW7CSCwJ7g-3">
          <mxGeometry width="50" height="50" relative="1" as="geometry">
            <mxPoint x="790" y="3810" as="sourcePoint" />
            <mxPoint x="960" y="4010" as="targetPoint" />
          </mxGeometry>
        </mxCell>
        <mxCell id="rtSp7OafgJxW7CSCwJ7g-31" value="" style="endArrow=none;html=1;rounded=0;exitX=1;exitY=0.3333333333333333;exitDx=0;exitDy=0;exitPerimeter=0;" parent="1" target="rtSp7OafgJxW7CSCwJ7g-10" edge="1" source="rtSp7OafgJxW7CSCwJ7g-3">
          <mxGeometry width="50" height="50" relative="1" as="geometry">
            <mxPoint x="880" y="4030" as="sourcePoint" />
            <mxPoint x="970" y="4020" as="targetPoint" />
          </mxGeometry>
        </mxCell>
        <mxCell id="rtSp7OafgJxW7CSCwJ7g-37" value="" style="endArrow=none;html=1;rounded=0;entryX=0;entryY=0.3333333333333333;entryDx=0;entryDy=0;entryPerimeter=0;" parent="1" source="rtSp7OafgJxW7CSCwJ7g-6" edge="1" target="rtSp7OafgJxW7CSCwJ7g-13">
          <mxGeometry width="50" height="50" relative="1" as="geometry">
            <mxPoint x="1700" y="3860" as="sourcePoint" />
            <mxPoint x="1800" y="3850" as="targetPoint" />
          </mxGeometry>
        </mxCell>
        <mxCell id="rtSp7OafgJxW7CSCwJ7g-38" value="" style="endArrow=none;html=1;rounded=0;entryX=0;entryY=0.3333333333333333;entryDx=0;entryDy=0;entryPerimeter=0;" parent="1" source="rtSp7OafgJxW7CSCwJ7g-17" target="rtSp7OafgJxW7CSCwJ7g-13" edge="1">
          <mxGeometry width="50" height="50" relative="1" as="geometry">
            <mxPoint x="1710" y="3870" as="sourcePoint" />
            <mxPoint x="1810" y="3860" as="targetPoint" />
          </mxGeometry>
        </mxCell>
        <mxCell id="rtSp7OafgJxW7CSCwJ7g-39" value="" style="endArrow=none;html=1;rounded=0;entryX=0;entryY=0.3333333333333333;entryDx=0;entryDy=0;entryPerimeter=0;" parent="1" source="rtSp7OafgJxW7CSCwJ7g-18" target="rtSp7OafgJxW7CSCwJ7g-13" edge="1">
          <mxGeometry width="50" height="50" relative="1" as="geometry">
            <mxPoint x="1720" y="3880" as="sourcePoint" />
            <mxPoint x="1820" y="3870" as="targetPoint" />
          </mxGeometry>
        </mxCell>
        <mxCell id="rtSp7OafgJxW7CSCwJ7g-41" value="" style="endArrow=none;html=1;rounded=0;entryX=0;entryY=0.3333333333333333;entryDx=0;entryDy=0;entryPerimeter=0;" parent="1" source="rtSp7OafgJxW7CSCwJ7g-24" edge="1" target="rtSp7OafgJxW7CSCwJ7g-13">
          <mxGeometry width="50" height="50" relative="1" as="geometry">
            <mxPoint x="1740" y="3900" as="sourcePoint" />
            <mxPoint x="1800" y="3850" as="targetPoint" />
          </mxGeometry>
        </mxCell>
        <mxCell id="rtSp7OafgJxW7CSCwJ7g-43" value="" style="endArrow=none;html=1;rounded=0;entryX=0;entryY=0.3333333333333333;entryDx=0;entryDy=0;entryPerimeter=0;" parent="1" source="rtSp7OafgJxW7CSCwJ7g-21" target="rtSp7OafgJxW7CSCwJ7g-13" edge="1">
          <mxGeometry width="50" height="50" relative="1" as="geometry">
            <mxPoint x="1760" y="3920" as="sourcePoint" />
            <mxPoint x="1860" y="3910" as="targetPoint" />
          </mxGeometry>
        </mxCell>
        <mxCell id="rtSp7OafgJxW7CSCwJ7g-44" value="" style="endArrow=none;html=1;rounded=0;entryX=0;entryY=0.3333333333333333;entryDx=0;entryDy=0;entryPerimeter=0;" parent="1" source="rtSp7OafgJxW7CSCwJ7g-22" target="rtSp7OafgJxW7CSCwJ7g-13" edge="1">
          <mxGeometry width="50" height="50" relative="1" as="geometry">
            <mxPoint x="1770" y="3930" as="sourcePoint" />
            <mxPoint x="1870" y="3920" as="targetPoint" />
          </mxGeometry>
        </mxCell>
        <mxCell id="rtSp7OafgJxW7CSCwJ7g-47" value="" style="endArrow=none;html=1;rounded=0;entryX=0;entryY=0.3333333333333333;entryDx=0;entryDy=0;entryPerimeter=0;" parent="1" source="rtSp7OafgJxW7CSCwJ7g-20" target="rtSp7OafgJxW7CSCwJ7g-15" edge="1">
          <mxGeometry width="50" height="50" relative="1" as="geometry">
            <mxPoint x="1780" y="4280" as="sourcePoint" />
            <mxPoint x="1830" y="4230" as="targetPoint" />
          </mxGeometry>
        </mxCell>
        <mxCell id="rtSp7OafgJxW7CSCwJ7g-48" value="" style="endArrow=none;html=1;rounded=0;entryX=0;entryY=0.3333333333333333;entryDx=0;entryDy=0;entryPerimeter=0;exitX=1;exitY=0.5;exitDx=0;exitDy=0;" parent="1" source="rtSp7OafgJxW7CSCwJ7g-22" target="rtSp7OafgJxW7CSCwJ7g-15" edge="1">
          <mxGeometry width="50" height="50" relative="1" as="geometry">
            <mxPoint x="1790" y="4290" as="sourcePoint" />
            <mxPoint x="1840" y="4240" as="targetPoint" />
          </mxGeometry>
        </mxCell>
        <mxCell id="rtSp7OafgJxW7CSCwJ7g-49" value="" style="endArrow=none;html=1;rounded=0;entryX=0;entryY=0.3333333333333333;entryDx=0;entryDy=0;entryPerimeter=0;exitX=1;exitY=0;exitDx=0;exitDy=0;" parent="1" source="rtSp7OafgJxW7CSCwJ7g-21" target="rtSp7OafgJxW7CSCwJ7g-15" edge="1">
          <mxGeometry width="50" height="50" relative="1" as="geometry">
            <mxPoint x="1800" y="4300" as="sourcePoint" />
            <mxPoint x="1850" y="4250" as="targetPoint" />
          </mxGeometry>
        </mxCell>
        <mxCell id="5BlDvdbWtuIsPbW9NAZF-3" value="" style="endArrow=none;html=1;rounded=0;entryX=0;entryY=0.5;entryDx=0;entryDy=0;exitX=1;exitY=0.3333333333333333;exitDx=0;exitDy=0;exitPerimeter=0;" edge="1" parent="1" source="rtSp7OafgJxW7CSCwJ7g-3" target="rtSp7OafgJxW7CSCwJ7g-26">
          <mxGeometry width="50" height="50" relative="1" as="geometry">
            <mxPoint x="810" y="3810" as="sourcePoint" />
            <mxPoint x="1163" y="4118" as="targetPoint" />
          </mxGeometry>
        </mxCell>
        <mxCell id="5BlDvdbWtuIsPbW9NAZF-4" value="" style="endArrow=none;html=1;rounded=0;entryX=0;entryY=0.3333333333333333;entryDx=0;entryDy=0;entryPerimeter=0;" edge="1" parent="1" target="rtSp7OafgJxW7CSCwJ7g-13">
          <mxGeometry width="50" height="50" relative="1" as="geometry">
            <mxPoint x="1410" y="3439" as="sourcePoint" />
            <mxPoint x="1805" y="3610" as="targetPoint" />
          </mxGeometry>
        </mxCell>
        <mxCell id="5BlDvdbWtuIsPbW9NAZF-5" value="" style="endArrow=none;html=1;rounded=0;exitX=0.962;exitY=0.667;exitDx=0;exitDy=0;exitPerimeter=0;entryX=0;entryY=0.3333333333333333;entryDx=0;entryDy=0;entryPerimeter=0;" edge="1" parent="1" source="rtSp7OafgJxW7CSCwJ7g-26" target="rtSp7OafgJxW7CSCwJ7g-15">
          <mxGeometry width="50" height="50" relative="1" as="geometry">
            <mxPoint x="1502" y="4018" as="sourcePoint" />
            <mxPoint x="1820" y="4220" as="targetPoint" />
          </mxGeometry>
        </mxCell>
        <mxCell id="5BlDvdbWtuIsPbW9NAZF-7" value="" style="endArrow=none;html=1;rounded=0;exitX=1;exitY=0.5;exitDx=0;exitDy=0;entryX=0;entryY=0.3333333333333333;entryDx=0;entryDy=0;entryPerimeter=0;" edge="1" parent="1" source="rtSp7OafgJxW7CSCwJ7g-6" target="rtSp7OafgJxW7CSCwJ7g-15">
          <mxGeometry width="50" height="50" relative="1" as="geometry">
            <mxPoint x="1415" y="3463" as="sourcePoint" />
            <mxPoint x="1890" y="4220" as="targetPoint" />
          </mxGeometry>
        </mxCell>
        <mxCell id="5BlDvdbWtuIsPbW9NAZF-8" value="" style="endArrow=none;html=1;rounded=0;exitX=1;exitY=0.5;exitDx=0;exitDy=0;entryX=0;entryY=0.3333333333333333;entryDx=0;entryDy=0;entryPerimeter=0;" edge="1" parent="1" source="rtSp7OafgJxW7CSCwJ7g-5" target="rtSp7OafgJxW7CSCwJ7g-13">
          <mxGeometry width="50" height="50" relative="1" as="geometry">
            <mxPoint x="1420" y="3449" as="sourcePoint" />
            <mxPoint x="1830" y="3600" as="targetPoint" />
          </mxGeometry>
        </mxCell>
        <mxCell id="5BlDvdbWtuIsPbW9NAZF-9" value="" style="endArrow=none;html=1;rounded=0;entryX=0;entryY=0.5;entryDx=0;entryDy=0;exitX=1;exitY=0.3333333333333333;exitDx=0;exitDy=0;exitPerimeter=0;" edge="1" parent="1" source="rtSp7OafgJxW7CSCwJ7g-3" target="rtSp7OafgJxW7CSCwJ7g-6">
          <mxGeometry width="50" height="50" relative="1" as="geometry">
            <mxPoint x="820" y="3820" as="sourcePoint" />
            <mxPoint x="1300" y="3550" as="targetPoint" />
          </mxGeometry>
        </mxCell>
        <mxCell id="5BlDvdbWtuIsPbW9NAZF-10" value="" style="endArrow=none;html=1;rounded=0;exitX=1;exitY=0.5;exitDx=0;exitDy=0;entryX=0;entryY=0.3333333333333333;entryDx=0;entryDy=0;entryPerimeter=0;" edge="1" parent="1" source="rtSp7OafgJxW7CSCwJ7g-5" target="rtSp7OafgJxW7CSCwJ7g-15">
          <mxGeometry width="50" height="50" relative="1" as="geometry">
            <mxPoint x="1415" y="3463" as="sourcePoint" />
            <mxPoint x="1890" y="4220" as="targetPoint" />
          </mxGeometry>
        </mxCell>
        <mxCell id="5BlDvdbWtuIsPbW9NAZF-14" value="View Students&lt;div&gt;(Currently living and Leaved Students)&lt;/div&gt;" style="ellipse;whiteSpace=wrap;html=1;fillColor=none;" vertex="1" parent="1">
          <mxGeometry x="1320" y="4330" width="120" height="80" as="geometry" />
        </mxCell>
        <mxCell id="5BlDvdbWtuIsPbW9NAZF-15" value="" style="endArrow=none;html=1;rounded=0;entryX=0;entryY=0.3333333333333333;entryDx=0;entryDy=0;entryPerimeter=0;exitX=1;exitY=0;exitDx=0;exitDy=0;" edge="1" parent="1" source="5BlDvdbWtuIsPbW9NAZF-14" target="rtSp7OafgJxW7CSCwJ7g-15">
          <mxGeometry width="50" height="50" relative="1" as="geometry">
            <mxPoint x="1612" y="4411" as="sourcePoint" />
            <mxPoint x="1890" y="4220" as="targetPoint" />
          </mxGeometry>
        </mxCell>
        <mxCell id="5BlDvdbWtuIsPbW9NAZF-16" value="" style="endArrow=none;html=1;rounded=0;exitX=1;exitY=0.5;exitDx=0;exitDy=0;entryX=0;entryY=0.3333333333333333;entryDx=0;entryDy=0;entryPerimeter=0;" edge="1" parent="1" source="rtSp7OafgJxW7CSCwJ7g-24" target="rtSp7OafgJxW7CSCwJ7g-15">
          <mxGeometry width="50" height="50" relative="1" as="geometry">
            <mxPoint x="1415" y="4120" as="sourcePoint" />
            <mxPoint x="1880" y="4210" as="targetPoint" />
          </mxGeometry>
        </mxCell>
      </root>
    </mxGraphModel>
  </diagram>
</mxfile>
